<svg width="25" height="24" viewBox="0 0 25 24" fill="none" xmlns="http://www.w3.org/2000/svg">
<path d="M3.2036 7.50914C4.87219 4.24092 8.30149 2 12.2656 2C14.9989 2 17.2944 2.99095 19.0506 4.60455L16.1421 7.47274C15.0912 6.48185 13.7544 5.97727 12.2656 5.97727C9.62442 5.97727 7.38884 7.73637 6.59149 10.1C6.38863 10.7 6.27339 11.3409 6.27339 12C6.27339 12.6591 6.38863 13.3 6.59149 13.9C7.38884 16.2636 9.62442 18.0227 12.2656 18.0227C13.6299 18.0227 14.7916 17.6682 15.6996 17.0682C16.7735 16.3591 17.488 15.3 17.7231 14.05H12.2656V10.1818H21.8162C21.9361 10.8363 22.0006 11.5182 22.0006 12.2273C22.0006 15.2727 20.8944 17.8363 18.9768 19.5773C17.299 21.1046 15.0036 22 12.2656 22C8.30149 22 4.87219 19.7591 3.2036 16.4909C2.51681 15.1409 2.125 13.6136 2.125 12C2.125 10.3864 2.51681 8.85911 3.2036 7.50914Z" fill="black"/>
</svg>
