<svg width="26" height="24" viewBox="0 0 26 24" fill="none" xmlns="http://www.w3.org/2000/svg">
<path d="M7.97866 4.99993C7.97829 5.81424 7.47731 6.54702 6.71196 6.85273C5.9466 7.15845 5.06971 6.97605 4.49477 6.39155C3.91983 5.80704 3.76165 4.93715 4.09482 4.19207C4.42801 3.44699 5.186 2.9755 6.01138 2.99993C7.10766 3.03238 7.97916 3.91837 7.97866 4.99993ZM8.03951 8.47993H3.98326V20.9999H8.03951V8.47993ZM14.4484 8.47993H10.4124V20.9999H14.4078V14.4299C14.4078 10.7699 19.2449 10.4299 19.2449 14.4299V20.9999H23.2505V13.0699C23.2505 6.89993 16.0912 7.12993 14.4078 10.1599L14.4484 8.47993Z" fill="black"/>
</svg>
