<svg width="38" height="30" viewBox="0 0 38 30" fill="none" xmlns="http://www.w3.org/2000/svg">
<path d="M16.5616 28.5496C16.0607 29.0486 15.382 29.3283 14.6749 29.3271C13.9678 29.3258 13.2902 29.0438 12.791 28.543L0.811963 16.522C0.312915 16.0211 0.0332633 15.3424 0.0345001 14.6353C0.0357369 13.9282 0.317761 13.2506 0.818558 12.7514L12.8395 0.772369C13.3433 0.287495 14.0174 0.0198883 14.7166 0.0271861C15.4158 0.034484 16.0841 0.316104 16.5777 0.811389C17.0712 1.30667 17.3505 1.976 17.3553 2.6752C17.3602 3.3744 17.0902 4.04753 16.6036 4.54962L9.37191 11.985L34.7052 12.0293C35.4125 12.0305 36.0902 12.3127 36.5895 12.8136C37.0887 13.3146 37.3684 13.9934 37.3672 14.7006C37.366 15.4079 37.0838 16.0857 36.5829 16.5849C36.0819 17.0841 35.4031 17.3639 34.6959 17.3626L9.36258 17.3183L16.5682 24.7789C17.0673 25.2799 17.3469 25.9585 17.3457 26.6656C17.3444 27.3727 17.0624 28.0504 16.5616 28.5496Z" fill="white"/>
</svg>
